<svg xmlns="http://www.w3.org/2000/svg" width="1200" height="40" viewBox="0 0 1200 40">
<defs><filter id="g" x="-50%" y="-300%" width="200%" height="700%"><feGaussianBlur stdDeviation="3"/></filter></defs>
<path d="M0 34 V9.9 H16.2 V28.9 H50.3 V22.1 H82.6 V28.5 H93.9 V8.6 H129.5 V17.9 H151.3 V12.8 H181.5 V22 H213.6 V28 H236.2 V11.6 H265.6 V20 H278.8 V27.5 H291.6 V13 H317.8 V24.2 H351.9 V22.2 H377.2 V18.7 H395.4 V26.5 H413.4 V16.2 H446.1 V26.1 H468.7 V9.7 H485.3 V26.2 H508.1 V26.1 H529.4 V14.8 H539.5 V18.1 H553.2 V21.8 H586.2 V18.9 H617.7 V8.9 H648.2 V23.9 H663.5 V14.3 H698.2 V13.3 H729.7 V20.8 H759.4 V10.8 H774.7 V20.3 H802.9 V27.8 H821.7 V19.8 H841.7 V13 H874.1 V28.3 H899.3 V11.9 H928.6 V28.7 H960.8 V20.4 H990.2 V25.7 H1023.9 V11.4 H1041.2 V9.1 H1076.8 V8.4 H1093 V15.7 H1124.7 V25.9 H1144.4 V29.8 H1155.1 V13.2 H1168.6 V8.2 H1191.4 V21 H1200 V34 Z" fill="#161b22"/>
<rect x="164.9" y="17.8" width="3" height="3" fill="#ff5a4e"></rect><rect x="249.4" y="16.6" width="3" height="3" fill="#ff5a4e"><animate attributeName="opacity" values="1;.2;1" dur="4.9s" repeatCount="indefinite"/></rect><rect x="303.2" y="18" width="3" height="3" fill="#ff5a4e"></rect><rect x="428.3" y="21.2" width="3" height="3" fill="#ff5a4e"></rect><rect x="568.2" y="26.8" width="3" height="3" fill="#ff5a4e"></rect><rect x="631.4" y="13.9" width="3" height="3" fill="#ff5a4e"></rect><rect x="679.4" y="19.3" width="3" height="3" fill="#ff5a4e"><animate attributeName="opacity" values="1;.2;1" dur="2.9s" repeatCount="indefinite"/></rect><rect x="712.5" y="18.3" width="3" height="3" fill="#ff5a4e"></rect><rect x="743" y="25.8" width="3" height="3" fill="#ff5a4e"></rect><rect x="765.6" y="15.8" width="3" height="3" fill="#ff5a4e"></rect><rect x="787.3" y="25.3" width="3" height="3" fill="#ff5a4e"></rect><rect x="856.4" y="18" width="3" height="3" fill="#ff5a4e"></rect><rect x="1057.5" y="14.1" width="3" height="3" fill="#ff5a4e"></rect><rect x="1083.4" y="13.4" width="3" height="3" fill="#ff5a4e"></rect><rect x="1160.3" y="18.2" width="3" height="3" fill="#ff5a4e"></rect><rect x="1178.5" y="13.2" width="3" height="3" fill="#ff5a4e"></rect>
<rect x="0" y="34" width="1200" height="2" fill="#2a0b0d"/>
<g><rect x="-60" y="33" width="60" height="4" rx="2" fill="#ff5a4e" filter="url(#g)"/><rect x="-60" y="33.5" width="60" height="3" rx="1.5" fill="#e5262d"/><animateTransform attributeName="transform" type="translate" values="0 0;1260 0" dur="6s" repeatCount="indefinite"/></g>
</svg>
